<svg id="Слой_1" data-name="Слой 1" xmlns="http://www.w3.org/2000/svg" viewBox="0 0 246.64 68.37"><defs><style>.cls-1{fill:none;}.cls-2{fill:#d81942;}</style></defs><title>Азалия_лого_К</title><path d="M136.56,71.27q0,.63-1.34.63t-1.9-.07l-3.8-14H114.06L110.55,71.2q-.07.49-.39.6a4.24,4.24,0,0,1-1.16.11q-1.13,0-2-.07l13.5-49.08q.14-.42,1.06-.42a5.6,5.6,0,0,1,1.34.14L136.49,71Zm-7.81-16.46L125,40.75q-2.88-10.62-3.16-13.85-.42,3.24-3.23,13.85l-3.73,14.06Z" transform="translate(-21 -16.41)"/><path d="M141.77,71.41q-2.53-1.12-2.53-2.46a3.94,3.94,0,0,1,.7-2,9.81,9.81,0,0,0,3.52,2.18,11.44,11.44,0,0,0,3.87.7A8.76,8.76,0,0,0,152.7,68q2.35-1.76,2.36-6,0-3.66-1.93-5.42a7.29,7.29,0,0,0-5.1-1.76h-4.15q-1.13,0-1.13-1.27V52.07h6.82a10.34,10.34,0,0,0,3.31-3.45,8.18,8.18,0,0,0,1-3.94,5.64,5.64,0,0,0-1.62-4.32,6.44,6.44,0,0,0-4.57-1.51,9.92,9.92,0,0,0-3.9.7,16.29,16.29,0,0,0-3.2,1.83,3.62,3.62,0,0,1-.56-1.76A2.28,2.28,0,0,1,141,38a7.87,7.87,0,0,1,2.85-1.41A14.47,14.47,0,0,1,148,36q4.36,0,6.72,2.07a7.24,7.24,0,0,1,2.36,5.73,10.51,10.51,0,0,1-1.23,5,11,11,0,0,1-3.41,3.87,8.81,8.81,0,0,1,5.91,9.14q0,5.56-3.27,8.12a12.21,12.21,0,0,1-7.77,2.57A13.53,13.53,0,0,1,141.77,71.41Z" transform="translate(-21 -16.41)"/><path d="M166.66,70.63q-2.74-2-2.74-8.51,0-6.75,3-9.07a12.52,12.52,0,0,1,7.95-2.32,17.82,17.82,0,0,1,5.91.77v-6.4q0-3.51-1.51-4.78a6.81,6.81,0,0,0-4.46-1.27,32.66,32.66,0,0,0-6.08.53,19.78,19.78,0,0,0-4.33,1.23,4,4,0,0,1-.42-1.83q0-1,.49-1.27a14,14,0,0,1,4.33-1.23,40.42,40.42,0,0,1,6.72-.53q4.29,0,6.36,1.93t2.07,6.57v4.36q0,12.87-.42,21.1a16.92,16.92,0,0,1-9.42,2.6A11.5,11.5,0,0,1,166.66,70.63ZM178,69.16a7,7,0,0,0,2.36-1.2q.35-3.94.35-14a15.45,15.45,0,0,0-5-.7,14.31,14.31,0,0,0-4.47.6,5.5,5.5,0,0,0-3,2.5,11.12,11.12,0,0,0-1.16,5.7,10.27,10.27,0,0,0,1,5.06,4.37,4.37,0,0,0,2.53,2.14,14.14,14.14,0,0,0,3.94.46A10.49,10.49,0,0,0,178,69.16Z" transform="translate(-21 -16.41)"/><path d="M187.33,70.35a3.76,3.76,0,0,1,.07-.84q2.67-.07,4.11-3.2A33.38,33.38,0,0,0,193.73,57q.77-6.22,1.76-19.3a1.12,1.12,0,0,1,.14-.67q.14-.17.84-.25t1.83-.07h12.38V71.06a.82.82,0,0,1-.14.56,1.87,1.87,0,0,1-.95.18q-.81,0-2.15,0V39.48h-9q-.84,11.81-1.86,18.67a36.06,36.06,0,0,1-2.78,10.37Q192,72,189.09,72,187.33,72,187.33,70.35Z" transform="translate(-21 -16.41)"/><path d="M223.48,71.27a6.74,6.74,0,0,1-3.13-4,26.23,26.23,0,0,1-.88-7.63V37.51a1,1,0,0,1,.14-.63,1.78,1.78,0,0,1,.91-.18q.77,0,2.11,0V60.09a20.34,20.34,0,0,0,.63,5.8,4.77,4.77,0,0,0,2.21,2.88,9.85,9.85,0,0,0,4.68.88,19.24,19.24,0,0,0,3.62-.39,11,11,0,0,0,3.55-1.3V37.51a.82.82,0,0,1,.18-.6,1.68,1.68,0,0,1,.95-.21q.77,0,2,0V70.14a20.32,20.32,0,0,1-5.17,1.79,26.88,26.88,0,0,1-5.52.6A13,13,0,0,1,223.48,71.27Z" transform="translate(-21 -16.41)"/><path d="M247.39,72l2.67-9.35A12.15,12.15,0,0,1,252,58.5a8.48,8.48,0,0,1,3-2.5,8.67,8.67,0,0,1-4.57-3,9.94,9.94,0,0,1-1.9-6.47q0-4.85,2.85-7.35t8.33-2.5h7.1q.56,0,.7.25a1,1,0,0,1,.14.46V71.83q-1.34,0-2.14-.07t-1-.28a1.69,1.69,0,0,1-.14-.84V56.57h-4.78q-4.57,0-6.4,6.26l-2.46,8.37a1.41,1.41,0,0,1-.32.7,1.9,1.9,0,0,1-.95.14Q248.16,72,247.39,72Zm17-18.07V39.48l-5.7-.07a6.77,6.77,0,0,0-5.06,1.86q-1.83,1.86-1.83,5.59t1.86,5.31a6.81,6.81,0,0,0,4.82,1.72Z" transform="translate(-21 -16.41)"/><path class="cls-1" d="M84.23,68.55a34.28,34.28,0,0,1-2.84,4A13.82,13.82,0,0,0,86.89,71,9.59,9.59,0,0,0,84.23,68.55Z" transform="translate(-21 -16.41)"/><path class="cls-2" d="M49.83,58.41c-2-4.45-8.52-21.22-1.17-32.87,0,0,13.14,5.24,19.25,17.53,2.85-4.54,7.79-10.33,15.18-12.19A34.16,34.16,0,0,0,25.54,67.57C33.78,58.42,42.63,57.11,49.83,58.41Z" transform="translate(-21 -16.41)"/><path class="cls-2" d="M65.71,66a25.81,25.81,0,0,0,3.08,2.43l0,.16,0-.14c2.9,2,7.53,4.37,12.57,4.07a34.28,34.28,0,0,0,2.84-4c-2.51-1.7-7-3.56-14.52-3.11L69,65.5c-1.08.08-2.22.21-3.42.4A25,25,0,0,1,69,64.59a43.39,43.39,0,0,0-3-16.93L65.72,47A24.34,24.34,0,0,0,54.27,34.82s-6.91,5.48-4.07,23.66a35.41,35.41,0,0,1,14.56,6.79c-21.73-8-30.47,3-30.47,3,12.66,10.95,30.24-2.86,30.24-2.86-17.86,20.52-35.69,5.48-38.65,2.7a33.76,33.76,0,0,0,34.69,16.2c-5.32-8.82-1-13.51,2.24-15.6l.58-.35a12.84,12.84,0,0,1,2.28-1,18,18,0,0,0-1.52,1.54l-.3.35c-5.24,6.36-1.27,12-1.27,12,5.42-1.61,5-7.23,4.1-10.77l.14.06-.14-.08a20.82,20.82,0,0,0-1-3c6.21,9.55,2.21,14-1.28,16a34.14,34.14,0,0,0,14.92-8.7C74.79,74.27,69.85,72,65.71,66Z" transform="translate(-21 -16.41)"/><path class="cls-2" d="M71.2,63.34s17.2-11.09,11.19-25c0,0-6-.66-13.67,6.53A31.19,31.19,0,0,1,70,64.31c4-1.09,10.25-1.88,16,1a34,34,0,0,0,.8-27.63C88.32,45.12,87.5,56.72,71.2,63.34Z" transform="translate(-21 -16.41)"/><path class="cls-2" d="M50.35,59.54c-.06-.37-.1-.7-.16-1.06l-.37-.06C50.15,59.13,50.35,59.54,50.35,59.54Z" transform="translate(-21 -16.41)"/></svg>