<svg xmlns="http://www.w3.org/2000/svg" xmlns:xlink="http://www.w3.org/1999/xlink" width="50" height="50" viewBox="0 0 50 50"><defs><path id="gfuca" d="M561 2095a24 24 0 1 1 0 48 24 24 0 0 1 0-48z"/><path id="gfucb" d="M560 2108a1 1 0 0 1 2 0v23a1 1 0 0 1-2 0z"/><path id="gfucc" d="M549 2119a1 1 0 0 1 1-1h23a1 1 0 0 1 0 2h-23a1 1 0 0 1-1-1z"/><clipPath id="gfucd"><use fill="#fff" xlink:href="#gfuca"/></clipPath></defs><g><g transform="translate(-536 -2094)"><use fill="#fff" xlink:href="#gfucb"/></g><g transform="translate(-536 -2094)"><use fill="#fff" xlink:href="#gfucc"/></g><g transform="translate(-536 -2094)"><use fill="#fff" fill-opacity="0" stroke="#fff" stroke-miterlimit="50" stroke-width="4" clip-path="url(&quot;#gfucd&quot;)" xlink:href="#gfuca"/></g></g></svg>